<?xml version="1.0" encoding="utf-8"?>
<!-- Generator: Adobe Illustrator 25.2.3, SVG Export Plug-In . SVG Version: 6.00 Build 0)  -->
<svg version="1.1" id="Layer_1" xmlns="http://www.w3.org/2000/svg" xmlns:xlink="http://www.w3.org/1999/xlink" x="0px" y="0px"
	 viewBox="0 0 304 270" style="enable-background:new 0 0 304 270;" xml:space="preserve">
<style type="text/css">
	.st0{fill-rule:evenodd;clip-rule:evenodd;fill:#B1B4C5;}
	.st1{fill-rule:evenodd;clip-rule:evenodd;fill:url(#SVGID_1_);}
	.st2{fill-rule:evenodd;clip-rule:evenodd;fill:#E1E4ED;}
	.st3{fill:#8A90AC;}
	.st4{fill-rule:evenodd;clip-rule:evenodd;fill:url(#SVGID_2_);}
	.st5{fill-rule:evenodd;clip-rule:evenodd;fill:url(#SVGID_3_);}
	.st6{enable-background:new    ;}
	.st7{fill:#B1B4C5;}
</style>
<g>
	<ellipse class="st0" cx="53.2" cy="54.8" rx="53.2" ry="54.8"/>
	
		<linearGradient id="SVGID_1_" gradientUnits="userSpaceOnUse" x1="-343.238" y1="632.5257" x2="-343.238" y2="631.5257" gradientTransform="matrix(106.378 0 0 -104.77 36566.1641 66269.7188)">
		<stop  offset="0" style="stop-color:#FFFFFF;stop-opacity:9.700000e-02"/>
		<stop  offset="1" style="stop-color:#FFFFFF;stop-opacity:0"/>
	</linearGradient>
	<ellipse class="st1" cx="53.2" cy="52.4" rx="53.2" ry="52.4"/>
	<g transform="translate(12.357 12.421)">
		<ellipse class="st2" cx="40.8" cy="41" rx="40.8" ry="41"/>
		<path class="st3" d="M56.7,30.4c-0.3-0.1-0.6-0.2-0.9-0.1c-0.4,0-0.8,0.2-1,0.5c-1.2,1.7-2.1,4.8-2.9,7.3
			c-0.4,1.2-0.8,2.7-1.2,3.5c-0.4-2.1,0-9.7,0.2-12.6l0,0c0.1-2,0.1-2.4,0.1-2.6c-0.2-1.1-0.6-1.9-1.3-2.2c-0.7-0.3-1.6-0.2-2.6,0.4
			c-0.5,0.3-0.6,1.3-1.1,6.1l0,0c-0.2,2.6-0.8,8.6-1.4,9.6c-0.8-1.4-1.8-9.3-2.2-12.7c-0.3-2.4-0.5-3.8-0.6-4.2
			c-0.3-0.9-1.3-1.6-2.4-1.7c-0.9,0-1.6,0.4-2,1.2c-0.7,0.7-0.4,3.2,0.3,9c0.3,2.8,1.1,8.4,0.6,9.1c-0.9-0.1-2.4-3.7-4.6-10.6
			c-0.6-1.9-0.8-2.5-1-2.8C32.4,26.7,31.1,26,30,26c-0.1,0-0.2,0-0.3,0c-0.6,0.1-1.9,0.7-1.6,3.1c0.8,3.4,1.6,6,2.4,8.4l0,0
			c0.5,1.5,1,2.8,1.4,4.4c1,3.6,0.6,5.9,0.6,5.9c0,0.2-0.1,0.4-0.2,0.4c0,0-0.1,0-0.1,0c-0.3,0-0.8-0.2-1.1-0.3
			c-0.6-1.1-3.4-6.3-6-7.1l-0.1,0l-0.1,0c-0.9,0.1-1.6,0.5-2.1,1.1c-0.7,1-0.4,2.2-0.3,2.5l0,0.1c0,0,2.1,3.8,2.4,5.6
			c0.3,1.5,1.7,3.1,2.8,4.5l0,0.1c0.4,0.4,0.7,0.8,0.9,1.1c3.3,3.5,8.6,6.4,8.6,6.5c0.7,0.5,1,1,1.1,1.4c0,0.2,0,0.3-0.1,0.4
			l-0.1,0.1l0.7,0.7l13.8-1l0.6-2.7C55.3,53.6,55,47,55,46.9c0-0.2,0.5-2.6,0.9-4.5l0,0c0.8-3.8,1.8-8.4,2-10.2
			C58,31.4,57.5,30.7,56.7,30.4L56.7,30.4z"/>
	</g>
	<g transform="translate(196)">
		<ellipse class="st0" cx="53.7" cy="54.8" rx="53.7" ry="54.8"/>
		
			<linearGradient id="SVGID_2_" gradientUnits="userSpaceOnUse" x1="-539.2682" y1="632.5257" x2="-539.2682" y2="631.5257" gradientTransform="matrix(107.372 0 0 -104.77 57955.9961 66269.7188)">
			<stop  offset="0" style="stop-color:#FFFFFF;stop-opacity:9.700000e-02"/>
			<stop  offset="1" style="stop-color:#FFFFFF;stop-opacity:0"/>
		</linearGradient>
		<ellipse class="st4" cx="53.7" cy="52.4" rx="53.7" ry="52.4"/>
		<g transform="translate(12.473 12.421)">
			<ellipse class="st2" cx="41.2" cy="41" rx="41.2" ry="41"/>
			<path class="st3" d="M30.5,40.7l4.5-6.2c-1.8-0.3-5.2-0.4-8,2.4c-4.4,4.4-6.2,13.8-6.5,16.1l11.1,11.1c2-0.2,10.9-1.4,19.5-9.9
				c0.1-0.2,2.2-1.7,0.5-3.4c-0.8-0.8-2.2-0.8-3,0c-0.4,0.4-1.1,0.4-1.5,0c0,0,0,0,0,0c-0.4-0.4-0.4-1.1,0-1.5c0,0,0,0,0,0l3-3
				c1.5-1.5,0.1-4.1-2.1-3.5l-2.5,2.1c-0.4,0.4-1.1,0.3-1.5-0.1c-0.4-0.4-0.3-1.1,0.1-1.5c8.7-7.6,7.4-6.7,13-11.8
				c2.1-1.7-0.5-4.8-2.6-3L41,40.5c-0.4,0.3-1,0.3-1.4,0c-0.4-0.4-0.5-0.9-0.2-1.4l9.4-14.5c1.4-1.9-1.3-3.9-2.8-2L32.2,41.9
				c-0.3,0.5-1,0.6-1.5,0.3c0,0,0,0,0,0C30.2,41.8,30.1,41.2,30.5,40.7C30.4,40.7,30.4,40.7,30.5,40.7L30.5,40.7z"/>
		</g>
	</g>
	<g transform="translate(98 160)">
		<ellipse class="st0" cx="53.7" cy="54.8" rx="53.7" ry="54.8"/>
		
			<linearGradient id="SVGID_3_" gradientUnits="userSpaceOnUse" x1="-441.2682" y1="472.5257" x2="-441.2682" y2="471.5257" gradientTransform="matrix(107.372 0 0 -104.77 47433.5391 49506.5195)">
			<stop  offset="0" style="stop-color:#FFFFFF;stop-opacity:9.700000e-02"/>
			<stop  offset="1" style="stop-color:#FFFFFF;stop-opacity:0"/>
		</linearGradient>
		<ellipse class="st5" cx="53.7" cy="52.4" rx="53.7" ry="52.4"/>
		<g transform="translate(12.473 12.421)">
			<ellipse class="st2" cx="41.2" cy="41" rx="41.2" ry="41"/>
			<path class="st3" d="M57.2,35.2c-0.5-6-7.2-5.4-7.2-5.4c-2.8-5-7.3-1.4-7.3-1.4C39.3,23.5,35,28,35,28c-7.4-0.8-7.1,5.2-7.1,5.2
				c-0.2,1.9,1,7.8,1,7.8c-1.1-3.4-3.5-0.6-3.5-0.6c-2.9,4.5-0.7,7-0.7,7c3.9,4.6,12.4,10.2,12.4,10.2c3,1.7,1.8,3.3,1.8,3.3l18.4-3
				l0.4-3.5C60.5,46,57.2,35.1,57.2,35.2L57.2,35.2z"/>
		</g>
	</g>
	<g class="st6">
		<path class="st7" d="M135,21.7h3.7c0.7,0,1.3,0,1.6,0.1c0.4,0.1,0.7,0.2,1,0.4c0.3,0.2,0.5,0.5,0.7,0.8c0.2,0.3,0.3,0.7,0.3,1.1
			c0,0.4-0.1,0.8-0.4,1.2c-0.2,0.4-0.6,0.6-1,0.8c0.6,0.2,1,0.4,1.3,0.8s0.5,0.9,0.5,1.4c0,0.4-0.1,0.8-0.3,1.2
			c-0.2,0.4-0.5,0.7-0.8,1c-0.3,0.2-0.8,0.4-1.3,0.4c-0.3,0-1.1,0.1-2.3,0.1H135V21.7z M136.8,23.2v2.2h1.2c0.7,0,1.2,0,1.4,0
			c0.3,0,0.6-0.1,0.8-0.3c0.2-0.2,0.3-0.4,0.3-0.7c0-0.3-0.1-0.5-0.2-0.7c-0.2-0.2-0.4-0.3-0.7-0.3c-0.2,0-0.7,0-1.6,0H136.8z
			 M136.8,26.9v2.5h1.7c0.7,0,1.1,0,1.3-0.1c0.3-0.1,0.5-0.2,0.7-0.4c0.2-0.2,0.3-0.5,0.3-0.8c0-0.3-0.1-0.5-0.2-0.7
			c-0.1-0.2-0.3-0.3-0.6-0.4c-0.3-0.1-0.8-0.1-1.7-0.1H136.8z"/>
		<path class="st7" d="M144.3,31v-9.3h6.9v1.6h-5v2.1h4.7v1.6h-4.7v2.5h5.2V31H144.3z"/>
		<path class="st7" d="M161.4,31h-2l-0.8-2.1h-3.7l-0.8,2.1h-2l3.6-9.3h2L161.4,31z M157.9,27.3l-1.3-3.5l-1.3,3.5H157.9z"/>
		<path class="st7" d="M163.5,31v-7.7h-2.8v-1.6h7.4v1.6h-2.8V31H163.5z"/>
		<path class="st7" d="M168.9,28l1.8-0.2c0.1,0.6,0.3,1.1,0.7,1.4s0.8,0.4,1.4,0.4c0.6,0,1.1-0.1,1.4-0.4c0.3-0.3,0.5-0.6,0.5-0.9
			c0-0.2-0.1-0.4-0.2-0.6s-0.4-0.3-0.7-0.4c-0.2-0.1-0.7-0.2-1.5-0.4c-1-0.2-1.7-0.6-2.1-0.9c-0.6-0.5-0.9-1.1-0.9-1.9
			c0-0.5,0.1-0.9,0.4-1.3c0.3-0.4,0.7-0.7,1.2-0.9c0.5-0.2,1.1-0.3,1.8-0.3c1.2,0,2,0.3,2.6,0.8c0.6,0.5,0.9,1.2,0.9,2l-1.9,0.1
			c-0.1-0.5-0.3-0.8-0.5-1c-0.3-0.2-0.7-0.3-1.2-0.3c-0.5,0-1,0.1-1.3,0.3c-0.2,0.1-0.3,0.3-0.3,0.6c0,0.2,0.1,0.4,0.3,0.6
			c0.2,0.2,0.8,0.4,1.7,0.6c0.9,0.2,1.6,0.4,2,0.7c0.4,0.2,0.8,0.5,1,0.9c0.2,0.4,0.4,0.9,0.4,1.5c0,0.5-0.1,1-0.4,1.5
			c-0.3,0.5-0.7,0.8-1.3,1c-0.5,0.2-1.2,0.3-2,0.3c-1.2,0-2.1-0.3-2.7-0.8C169.4,29.8,169,29,168.9,28z"/>
	</g>
	<g class="st6">
		<path class="st7" d="M41,137.7h3.7c0.7,0,1.3,0,1.6,0.1c0.4,0.1,0.7,0.2,1,0.4c0.3,0.2,0.5,0.5,0.7,0.8c0.2,0.3,0.3,0.7,0.3,1.1
			c0,0.4-0.1,0.8-0.4,1.2c-0.2,0.4-0.6,0.6-1,0.8c0.6,0.2,1,0.4,1.3,0.8s0.5,0.9,0.5,1.4c0,0.4-0.1,0.8-0.3,1.2
			c-0.2,0.4-0.5,0.7-0.8,1c-0.3,0.2-0.8,0.4-1.3,0.4c-0.3,0-1.1,0.1-2.3,0.1H41V137.7z M42.8,139.2v2.2h1.2c0.7,0,1.2,0,1.4,0
			c0.3,0,0.6-0.1,0.8-0.3c0.2-0.2,0.3-0.4,0.3-0.7c0-0.3-0.1-0.5-0.2-0.7c-0.2-0.2-0.4-0.3-0.7-0.3c-0.2,0-0.7,0-1.6,0H42.8z
			 M42.8,142.9v2.5h1.7c0.7,0,1.1,0,1.3-0.1c0.3-0.1,0.5-0.2,0.7-0.4c0.2-0.2,0.3-0.5,0.3-0.8c0-0.3-0.1-0.5-0.2-0.7
			c-0.1-0.2-0.3-0.3-0.6-0.4c-0.3-0.1-0.8-0.1-1.7-0.1H42.8z"/>
		<path class="st7" d="M50.3,147v-9.3h6.9v1.6h-5v2.1h4.7v1.6h-4.7v2.5h5.2v1.6H50.3z"/>
		<path class="st7" d="M67.4,147h-2l-0.8-2.1h-3.7l-0.8,2.1h-2l3.6-9.3h2L67.4,147z M63.9,143.3l-1.3-3.5l-1.3,3.5H63.9z"/>
		<path class="st7" d="M69.5,147v-7.7h-2.8v-1.6h7.4v1.6h-2.8v7.7H69.5z"/>
		<path class="st7" d="M74.9,144l1.8-0.2c0.1,0.6,0.3,1.1,0.7,1.4c0.3,0.3,0.8,0.4,1.4,0.4c0.6,0,1.1-0.1,1.4-0.4
			c0.3-0.3,0.5-0.6,0.5-0.9c0-0.2-0.1-0.4-0.2-0.6c-0.1-0.2-0.4-0.3-0.7-0.4c-0.2-0.1-0.7-0.2-1.5-0.4c-1-0.2-1.7-0.6-2.1-0.9
			c-0.6-0.5-0.9-1.1-0.9-1.9c0-0.5,0.1-0.9,0.4-1.3c0.3-0.4,0.7-0.7,1.2-0.9c0.5-0.2,1.1-0.3,1.8-0.3c1.2,0,2,0.3,2.6,0.8
			c0.6,0.5,0.9,1.2,0.9,2l-1.9,0.1c-0.1-0.5-0.3-0.8-0.5-1c-0.3-0.2-0.7-0.3-1.2-0.3c-0.5,0-1,0.1-1.3,0.3c-0.2,0.1-0.3,0.3-0.3,0.6
			c0,0.2,0.1,0.4,0.3,0.6c0.2,0.2,0.8,0.4,1.7,0.6c0.9,0.2,1.6,0.4,2,0.7c0.4,0.2,0.8,0.5,1,0.9c0.2,0.4,0.4,0.9,0.4,1.5
			c0,0.5-0.1,1-0.4,1.5c-0.3,0.5-0.7,0.8-1.3,1s-1.2,0.3-2,0.3c-1.2,0-2.1-0.3-2.7-0.8S75,145,74.9,144z"/>
	</g>
	<g class="st6">
		<path class="st7" d="M236,137.7h3.7c0.7,0,1.3,0,1.6,0.1c0.4,0.1,0.7,0.2,1,0.4c0.3,0.2,0.5,0.5,0.7,0.8c0.2,0.3,0.3,0.7,0.3,1.1
			c0,0.4-0.1,0.8-0.4,1.2c-0.2,0.4-0.6,0.6-1,0.8c0.6,0.2,1,0.4,1.3,0.8s0.5,0.9,0.5,1.4c0,0.4-0.1,0.8-0.3,1.2
			c-0.2,0.4-0.5,0.7-0.8,1s-0.8,0.4-1.3,0.4c-0.3,0-1.1,0.1-2.3,0.1H236V137.7z M237.8,139.2v2.2h1.2c0.7,0,1.2,0,1.4,0
			c0.3,0,0.6-0.1,0.8-0.3c0.2-0.2,0.3-0.4,0.3-0.7c0-0.3-0.1-0.5-0.2-0.7c-0.2-0.2-0.4-0.3-0.7-0.3c-0.2,0-0.7,0-1.6,0H237.8z
			 M237.8,142.9v2.5h1.7c0.7,0,1.1,0,1.3-0.1c0.3-0.1,0.5-0.2,0.7-0.4c0.2-0.2,0.3-0.5,0.3-0.8c0-0.3-0.1-0.5-0.2-0.7
			c-0.1-0.2-0.3-0.3-0.6-0.4c-0.3-0.1-0.8-0.1-1.7-0.1H237.8z"/>
		<path class="st7" d="M245.3,147v-9.3h6.9v1.6h-5v2.1h4.7v1.6h-4.7v2.5h5.2v1.6H245.3z"/>
		<path class="st7" d="M262.4,147h-2l-0.8-2.1h-3.7l-0.8,2.1h-2l3.6-9.3h2L262.4,147z M258.9,143.3l-1.3-3.5l-1.3,3.5H258.9z"/>
		<path class="st7" d="M264.5,147v-7.7h-2.8v-1.6h7.4v1.6h-2.8v7.7H264.5z"/>
		<path class="st7" d="M269.9,144l1.8-0.2c0.1,0.6,0.3,1.1,0.7,1.4s0.8,0.4,1.4,0.4c0.6,0,1.1-0.1,1.4-0.4c0.3-0.3,0.5-0.6,0.5-0.9
			c0-0.2-0.1-0.4-0.2-0.6s-0.4-0.3-0.7-0.4c-0.2-0.1-0.7-0.2-1.5-0.4c-1-0.2-1.7-0.6-2.1-0.9c-0.6-0.5-0.9-1.1-0.9-1.9
			c0-0.5,0.1-0.9,0.4-1.3c0.3-0.4,0.7-0.7,1.2-0.9c0.5-0.2,1.1-0.3,1.8-0.3c1.2,0,2,0.3,2.6,0.8c0.6,0.5,0.9,1.2,0.9,2l-1.9,0.1
			c-0.1-0.5-0.3-0.8-0.5-1c-0.3-0.2-0.7-0.3-1.2-0.3c-0.5,0-1,0.1-1.3,0.3c-0.2,0.1-0.3,0.3-0.3,0.6c0,0.2,0.1,0.4,0.3,0.6
			c0.2,0.2,0.8,0.4,1.7,0.6c0.9,0.2,1.6,0.4,2,0.7c0.4,0.2,0.8,0.5,1,0.9c0.2,0.4,0.4,0.9,0.4,1.5c0,0.5-0.1,1-0.4,1.5
			c-0.3,0.5-0.7,0.8-1.3,1c-0.5,0.2-1.2,0.3-2,0.3c-1.2,0-2.1-0.3-2.7-0.8C270.4,145.8,270,145,269.9,144z"/>
	</g>
	<g transform="matrix(-1 0 0 1 177 39)">
		<path class="st0" d="M2,10h46c1.1,0,2,0.9,2,2l0,0c0,1.1-0.9,2-2,2H2c-1.1,0-2-0.9-2-2l0,0C0,10.9,0.9,10,2,10z"/>
		<path class="st0" d="M42,2l8.6,8.7c0.7,0.7,0.7,1.9,0,2.6c-0.7,0.7-1.9,0.7-2.6,0c0,0,0,0,0,0l-8.6-8.7c-0.7-0.7-0.7-1.9,0-2.6
			C40.1,1.3,41.2,1.3,42,2C42,2,42,2,42,2z"/>
		<path class="st0" d="M39.3,19.4l8.6-8.7c0.7-0.7,1.9-0.7,2.6,0c0,0,0,0,0,0c0.7,0.7,0.7,1.9,0,2.6L42,22c-0.7,0.7-1.9,0.7-2.6,0
			c0,0,0,0,0,0C38.6,21.3,38.6,20.1,39.3,19.4z"/>
	</g>
	<g transform="scale(1 -1) rotate(-55 -82.574 -131.195)">
		<path class="st0" d="M2,10l46,0c1.1,0,2,0.9,2,2l0,0c0,1.1-0.9,2-2,2L2,14c-1.1,0-2-0.9-2-2l0,0C0,10.9,0.9,10,2,10z"/>
		<path class="st0" d="M42,2l8.6,8.7c0.7,0.7,0.7,1.9,0,2.6c-0.7,0.7-1.9,0.7-2.6,0c0,0,0,0,0,0l-8.6-8.7c-0.7-0.7-0.7-1.9,0-2.6
			C40.1,1.3,41.2,1.3,42,2C42,2,42,2,42,2z"/>
		<path class="st0" d="M39.4,19.4l8.6-8.7c0.7-0.7,1.9-0.7,2.6,0c0,0,0,0,0,0c0.7,0.7,0.7,1.9,0,2.6L42,22c-0.7,0.7-1.9,0.7-2.6,0
			c0,0,0,0,0,0C38.6,21.3,38.6,20.1,39.4,19.4z"/>
	</g>
	<g transform="rotate(-55 240.022 -103.651)">
		<path class="st0" d="M2,10l46,0c1.1,0,2,0.9,2,2l0,0c0,1.1-0.9,2-2,2L2,14c-1.1,0-2-0.9-2-2l0,0C0,10.9,0.9,10,2,10z"/>
		<path class="st0" d="M42,2l8.6,8.7c0.7,0.7,0.7,1.9,0,2.6c-0.7,0.7-1.9,0.7-2.6,0c0,0,0,0,0,0l-8.6-8.7c-0.7-0.7-0.7-1.9,0-2.6
			C40.1,1.3,41.2,1.3,42,2C42,2,42,2,42,2z"/>
		<path class="st0" d="M39.4,19.4l8.6-8.7c0.7-0.7,1.9-0.7,2.6,0c0,0,0,0,0,0c0.7,0.7,0.7,1.9,0,2.6L42,22c-0.7,0.7-1.9,0.7-2.6,0
			c0,0,0,0,0,0C38.6,21.3,38.6,20.1,39.4,19.4z"/>
	</g>
</g>
</svg>
